<?xml version="1.0" encoding="UTF-8"?><svg id="Capa_1" xmlns="http://www.w3.org/2000/svg" xmlns:xlink="http://www.w3.org/1999/xlink" viewBox="0 0 602.89 604.95"><defs><linearGradient id="Degradado_sin_nombre_17" x1="442.57" y1="72.92" x2="275.92" y2="382.83" gradientUnits="userSpaceOnUse"><stop offset="0" stop-color="#fdfdfe"/><stop offset=".15" stop-color="#6472eb"/><stop offset=".52" stop-color="#2d39a1"/><stop offset="1" stop-color="#6070d7"/></linearGradient><linearGradient id="Degradado_sin_nombre_5" x1="40.6" y1="312.09" x2="546.27" y2="312.09" gradientUnits="userSpaceOnUse"><stop offset="0" stop-color="#d4d6e5"/><stop offset=".53" stop-color="#ced0e1"/><stop offset="1" stop-color="#f3f3f8"/></linearGradient></defs><polygon points="437.01 64.34 241.85 38.75 92.01 126.46 40.6 239.76 116.13 415.18 251.35 512.39 421.66 513.85 512.29 429.06 546.27 302.51 536.41 182.01 517.41 135.97 437.01 64.34" fill="#020518"/><path d="m415.2,33.56s99.65,18.76,143.5,137.17l-32.4,7.55-121.82-124.74,10.72-19.98Z" fill="#020518"/><path d="m421.72,57.15s79.49,26.31,111.28,117.31l-12.61,12.06s-33.44,3.84-68.52,110.73c-35.08,106.9-131.57,133.21-206.12,78.94-74.55-54.27-42.76-169.39,12.61-200.09,55.37-30.7,149.66-55.92,163.36-118.96Z" fill="url(#Degradado_sin_nombre_17)"/><path d="m421.75,57.21s11.84-22.6-11.3-38.2c-23.14-15.6-222.07-62.07-342.39,90.02C36.9,148.41,14.77,194.69,5.32,244.1c-8.61,45.03-6.67,91.83,5.17,136.09,11.67,43.67,32.76,85.05,62.21,119.42,33.67,39.29,78.05,69.23,126.59,86.94,13.73,5.01,27.82,9.04,42.13,12.02,54.75,11.41,112.6,7.44,165.31-11.22,9.29-3.29,18.35-7.3,27.2-11.63,39.96-19.58,74.67-48.67,102.03-83.68,6.8-8.7,13.15-17.74,19.06-27.06,43.48-68.54,69.21-166.77,24.54-277.91,0,0-12.55-30.18-49.39-11.76-16.14,8.07-33.11,87.01-35.93,126.09s-33.72,202.01-170.8,247.79c-137.08,45.78-292.49-59.94-272.08-228.21,20.4-168.27,199.97-203.81,286.93-218.86,86.96-15.05,83.46-44.91,83.46-44.91Z" fill="#f4f5f8"/><path d="m421.75,57.21s.99,26.58-58.94,40.47c-59.94,13.89-316.49,32.52-316.49,264.96,0,35.81,38.01,182,194.42,197.35,156.42,15.35,227.32-133.39,245.59-223.66,18.27-90.27,20.1-169.04,59.94-166.48,0,0-16.08,5.19-23.88,27.36-7.8,22.17-13.89,55.79-24.36,111.83-10.48,56.04-26.07,146.43-112.81,216.84-86.74,70.41-224.15,41.05-278.42-18.33-54.27-59.39-60.48-105.43-60.48-105.43,0,0-24.12-91.36,26.68-167.01,50.8-75.65,129.74-107.81,179.93-120.97,50.19-13.16,143.97-23.29,168.82-56.91Z" fill="url(#Degradado_sin_nombre_5)"/></svg>