<?xml version="1.0" encoding="UTF-8"?><svg id="layer" xmlns="http://www.w3.org/2000/svg" viewBox="0 0 381.3 415.1"><path d="m381.3,90.46L246.47,12.63S224.96,0,190.82,0s-55.98,12.97-55.98,12.97L9.9,84.66l190.14,109.24v220.86l125.28-71.35s22.53-12.29,39.26-41.65c15.02-25.94,16.73-50.86,16.73-50.86V90.46h0Zm-203.45,36.18s27.99-5.12,51.55,8.53c23.55,13.65,37.55,21.51,37.55,21.51v47.11c0,22.53-19.12,46.08-19.12,46.08v-83.29l-69.98-39.94Zm110.6,182.29l-40.62,23.21v-21.85l31.75-18.09c30.04-21.85,35.16-53.94,35.16-64.86v-98.65l-86.37-49.84s-13.31-8.53-36.87-8.53-36.53,7.85-36.53,7.85l-30.38,17.41-19.12-10.92,41.99-23.9s16.39-9.22,44.04-9.22c25.26,0,45.06,9.9,45.06,9.9l97.63,56.33v107.53c0,16.73-7.51,57.01-45.74,83.63ZM.34,156.35l133.47,76.47v22.87l-76.12-43.69-47.79,26.97,123.57,71v21.85L1.02,256.37c.34,8.88,8.53,36.53,23.9,57.69,15.7,21.51,33.45,30.72,33.45,30.72l122.21,70.32v-209.94L0,101.39l.34,54.96Z" fill="#005f9e"/></svg>