<?xml version="1.0" encoding="UTF-8"?><svg id="Layer_1" xmlns="http://www.w3.org/2000/svg" viewBox="0 0 412.85 437.35"><path d="m267.2,0H15.3C6.85,0,0,6.85,0,15.3v75.07c0,6.27,1.22,9.73,4.16,12.67,21.55,21.55,65.51,65.51,87.07,87.07,1.38,1.38,3.41.51,3.41-1.24v-88.85c0-1.88-1.53-3.41-3.41-3.41H22.38c-4.48,0-8.11-3.63-8.11-8.11V22.35c0-4.48,3.63-8.11,8.11-8.11h230.9c4.48,0,8.11,3.63,8.11,8.11v66.16c0,4.48-3.63,8.1-8.1,8.1h-68.85c-1.88,0-3.41,1.53-3.41,3.42v257.71c0,4.47-3.63,8.1-8.1,8.1h-68.46c-1.8,0-3,2.24-1.73,3.5,14.99,14.98,45.15,45.15,60.46,60.46,4.11,4.12,9.45,7.55,16.34,7.55h65.76c6.22,0,11.27-5.05,11.27-11.27v-153.51c0-1.89,1.53-3.42,3.42-3.42h7.21c73.89,0,145.64-45.08,145.64-135.1C412.85,53.91,357.6,0,267.2,0Z" fill="#fff"/></svg>