<?xml version="1.0" encoding="UTF-8"?><svg id="Layer_1" xmlns="http://www.w3.org/2000/svg" xmlns:xlink="http://www.w3.org/1999/xlink" viewBox="0 0 1080 1080"><defs><style>.cls-1{fill:#fff;}.cls-2{opacity:.5;}.cls-3{clip-path:url(#clippath-1);}.cls-4{opacity:.3;}.cls-5{fill:#f9a429;}.cls-6{fill:#181818;}.cls-7{fill:#212121;}.cls-8{clip-path:url(#clippath);}.cls-9{fill:none;}.cls-10{fill:#e34989;}.cls-11{fill:#000072;}.cls-12{fill:#f9fcfd;}</style><clipPath id="clippath"><path class="cls-9" d="m850.65,456.9s55.5-196.46,0-238.19c-55.5-41.73-170.42,67.79-170.42,67.79-76.44-37.08-140.23-32.61-140.23-32.61,0,0-63.78-4.47-140.23,32.61,0,0-114.92-109.53-170.42-67.79-55.5,41.73,0,238.19,0,238.19h0c-20.65,38.28-38.9,83.76-53.24,137.77-11.86,44.64-5.16,92.39,18.9,131.81,41.56,68.07,137.15,145.19,344.99,144.39,207.84.8,303.43-76.31,344.99-144.39,24.07-39.42,30.76-87.17,18.9-131.81-14.35-54.01-32.59-99.49-53.24-137.77"/></clipPath><clipPath id="clippath-1"><path class="cls-9" d="m850.78,462.32s55.5-196.46,0-238.19c-55.5-41.73-170.42,67.79-170.42,67.79-76.44-37.08-140.23-32.61-140.23-32.61,0,0-63.78-4.47-140.23,32.61,0,0-114.92-109.53-170.42-67.79-55.5,41.73,0,238.19,0,238.19h0c-20.65,38.28-38.9,83.76-53.24,137.77-11.86,44.64-5.16,92.39,18.9,131.81,41.56,68.07,137.15,145.19,344.99,144.39,207.84.8,303.43-76.31,344.99-144.39,24.07-39.42,30.76-87.17,18.9-131.81-14.35-54.01-32.59-99.49-53.24-137.77"/></clipPath></defs><path class="cls-5" d="m850.65,456.9s55.5-196.46,0-238.19c-55.5-41.73-170.42,67.79-170.42,67.79-76.44-37.08-140.23-32.61-140.23-32.61,0,0-63.78-4.47-140.23,32.61,0,0-114.92-109.53-170.42-67.79-55.5,41.73,0,238.19,0,238.19h0c-20.65,38.28-38.9,83.76-53.24,137.77-11.86,44.64-5.16,92.39,18.9,131.81,41.56,68.07,137.15,145.19,344.99,144.39,207.84.8,303.43-76.31,344.99-144.39,24.07-39.42,30.76-87.17,18.9-131.81-14.35-54.01-32.59-99.49-53.24-137.77"/><path class="cls-10" d="m355.66,312.12s-62.21-57.92-90.25-36.84c-28.04,21.09.72,123.72.72,123.72,28.39-38.01,59.18-66.11,89.53-86.88Z"/><path class="cls-10" d="m724.34,312.12s62.21-57.92,90.25-36.84c28.04,21.09-.72,123.72-.72,123.72-28.39-38.01-59.18-66.11-89.53-86.88Z"/><g class="cls-8"><path class="cls-12" d="m172.75,611.08c-30.55,266.63,177.4,325.67,366.17,325.67s410.66-100.25,366.17-325.67c-68.73-22.09-119.88,19.23-155.47,39.28-35.59,20.05-57.28-26.18-107.6-54.01-50.32-27.82-103.1-25.78-103.1-25.78,0,0-52.78-2.05-103.1,25.78s-72.01,74.05-107.6,54.01c-35.59-20.05-86.74-61.37-155.47-39.28Z"/><g><g class="cls-2"><path class="cls-1" d="m850.78,224.13c-55.5-41.73-170.42,67.8-170.42,67.8-76.44-37.08-140.23-32.61-140.23-32.61,0,0-63.78-4.47-140.23,32.61,0,0-114.92-109.53-170.42-67.8-20.28,15.25-25.73,51.16-24.49,90.59,1.09-31.21,7.71-57.98,24.49-70.6,55.5-41.73,170.42,67.8,170.42,67.8,43.22-20.96,82.38-28.64,108.27-31.36-1.88,2.37-2.91,4.9-2.91,7.54,0,12.93,24.47,23.41,54.65,23.41s54.65-10.48,54.65-23.41c0,0,0-.01,0-.02,19.72,4.88,42.15,12.37,65.81,23.84,0,0,114.92-109.53,170.42-67.8,16.78,12.62,23.41,39.4,24.49,70.6,1.24-39.43-4.21-75.34-24.49-90.59Z"/></g><g class="cls-3"><path class="cls-12" d="m172.89,616.5c-30.55,266.63,177.4,325.67,366.17,325.67s410.66-100.25,366.17-325.67c-68.73-22.09-119.88,19.23-155.47,39.28-35.59,20.05-57.28-26.18-107.6-54.01-50.32-27.82-103.1-25.78-103.1-25.78,0,0-52.78-2.05-103.1,25.78-50.32,27.82-72.01,74.05-107.6,54.01-35.59-20.05-86.74-61.37-155.47-39.28Z"/><g class="cls-4"><path class="cls-7" d="m885.13,656.86c-41.56,68.07-137.15,145.19-344.99,144.39-207.84.8-303.43-76.31-344.99-144.39-9.61-15.75-16.41-32.83-20.4-50.51-9.66,42.81-2.55,87.96,20.4,125.54,41.56,68.07,137.15,145.19,344.99,144.39,207.84.8,303.43-76.31,344.99-144.39,22.95-37.58,30.06-82.73,20.4-125.54-3.99,17.68-10.79,34.76-20.4,50.51Z"/></g></g></g></g><g><g><path class="cls-1" d="m611.49,679.17c-2.36,23.62-17.35,35.28-38.86,32.81-24.56-2.81-30.87-22.22-32.38-29.45h-.49c-1.51,7.23-7.82,26.64-32.38,29.45-21.51,2.46-36.5-9.19-38.86-32.81"/><path class="cls-11" d="m501.9,713.32c-8.46,0-15.83-2.37-21.53-6.96-7.24-5.84-11.69-15.2-12.88-27.09-.06-.56.35-1.06.91-1.11.58-.04,1.06.35,1.11.91,1.13,11.33,5.33,20.22,12.13,25.71,6.49,5.23,15.34,7.37,25.61,6.2,23.59-2.7,29.89-20.94,31.5-28.65.1-.47.51-.81.99-.81h.49c.48,0,.9.34.99.81,1.61,7.71,7.91,25.95,31.5,28.65,10.27,1.18,19.12-.97,25.61-6.2,6.8-5.49,11-14.37,12.13-25.71.06-.56.52-.95,1.11-.91.56.06.97.55.91,1.11-1.19,11.88-5.64,21.25-12.88,27.09-6.92,5.58-16.3,7.87-27.11,6.63-22.19-2.54-29.89-18.1-32.51-27.23-2.62,9.12-10.31,24.68-32.51,27.23-1.91.22-3.77.33-5.59.33Z"/></g><g class="cls-4"><path class="cls-11" d="m611.49,679.17c-2.37,23.62-17.34,35.28-38.87,32.8-24.55-2.81-30.86-22.21-32.38-29.44h-.49c-1.5,7.23-7.81,26.63-32.38,29.44-21.5,2.48-36.5-9.18-38.84-32.8h6.35c6.72,10.26,18.16,14.91,32.49,13.25,12.43-1.42,20.17-7.08,25-13.25h15.29c4.82,6.17,12.56,11.83,24.97,13.25,14.36,1.66,25.79-2.99,32.52-13.25h6.35Z"/></g><path class="cls-6" d="m501.89,719.2c-9.81,0-18.43-2.81-25.19-8.26-8.49-6.84-13.69-17.59-15.04-31.08-.38-3.79,2.39-7.16,6.17-7.54,3.77-.39,7.16,2.38,7.54,6.17.97,9.73,4.42,17.24,9.97,21.72,5.24,4.22,12.58,5.93,21.25,4.93,19.08-2.19,24.74-15.98,26.42-24.01.67-3.19,3.48-5.48,6.75-5.48h.49c3.26,0,6.08,2.29,6.75,5.48,1.68,8.03,7.34,21.83,26.42,24.01,8.67.99,16.02-.71,21.25-4.93,5.55-4.48,9-11.99,9.97-21.72.38-3.79,3.76-6.57,7.54-6.17,3.79.38,6.55,3.75,6.17,7.54-1.35,13.49-6.55,24.23-15.04,31.08-8.17,6.59-19.06,9.32-31.47,7.9-16.8-1.92-26.4-10.59-31.84-19.05-5.44,8.46-15.04,17.12-31.84,19.05-2.14.25-4.23.37-6.28.37Z"/><path class="cls-6" d="m540,687.81c-3.81,0-6.89-3.09-6.89-6.89v-34.24c0-3.81,3.09-6.89,6.89-6.89s6.89,3.09,6.89,6.89v34.24c0,3.81-3.09,6.89-6.89,6.89Z"/><path class="cls-6" d="m583.84,640.19c0,14.27-20.4,33.42-45.56,33.42s-45.56-19.15-45.56-33.42,20.4-15.47,45.56-15.47,45.56,1.2,45.56,15.47Z"/><g><path class="cls-1" d="m557.99,636.1c0,3.13-8.85,7.33-19.77,7.33s-19.77-4.2-19.77-7.33,8.85-3.39,19.77-3.39,19.77.26,19.77,3.39Z"/><path class="cls-6" d="m538.21,644.35c-10.64,0-20.7-4.01-20.7-8.25,0-4.02,8.2-4.32,20.7-4.32s20.7.3,20.7,4.32c0,4.24-10.06,8.25-20.7,8.25Zm0-10.72c-6.12,0-18.85,0-18.85,2.47,0,2.19,7.96,6.41,18.85,6.41s18.85-4.21,18.85-6.41c0-2.47-12.73-2.47-18.85-2.47Z"/></g></g><path class="cls-6" d="m543.2,880.34c-1.08,0-2.15,0-3.24,0-95.29.37-175.81-15.57-239.07-47.37-49.76-25.02-88.1-59.18-113.97-101.55-25.21-41.3-32.49-92.03-19.97-139.17,13.38-50.38,30.96-96.28,52.27-136.48-3.37-12.55-14.14-54.63-20.08-101.1-9.67-75.72-1.42-124.01,24.51-143.51,26.46-19.89,65.72-13.91,116.71,17.77,27.9,17.34,51.36,37.51,61.11,46.3,71.95-33.28,131.24-31.21,138.51-30.81,7.27-.4,66.56-2.48,138.51,30.81,9.76-8.79,33.21-28.96,61.11-46.3,50.99-31.69,90.25-37.67,116.71-17.77,25.94,19.5,34.18,67.79,24.51,143.51-5.93,46.47-16.7,88.55-20.08,101.1,21.31,40.2,38.89,86.1,52.27,136.48,12.52,47.15,5.24,97.87-19.97,139.17-25.86,42.37-64.21,76.53-113.97,101.55-62.54,31.44-141.9,47.38-235.9,47.38Zm-3.24-18.94c1.08,0,2.16,0,3.23,0,205.16,0,294.69-75.95,333.71-139.86,22.54-36.91,29.04-82.27,17.83-124.45-13.34-50.24-30.93-95.8-52.27-135.43-1.25-2.14-1.66-4.77-.93-7.34,14.94-52.91,44.67-197.03,3.42-228.05-40.27-30.28-127.85,38.16-158.2,67.08-2.86,2.73-7.11,3.39-10.66,1.67-73.02-35.42-134.83-31.72-135.45-31.68-.43.03-.88.03-1.31,0-.6-.04-62.41-3.73-135.43,31.68-3.55,1.72-7.8,1.06-10.66-1.66-30.36-28.91-117.97-97.33-158.2-67.08-41.28,31.04-11.53,175.14,3.42,228.05.71,2.51.34,5.16-.93,7.34-21.35,39.63-38.93,85.19-52.27,135.43-11.2,42.18-4.7,87.54,17.83,124.45,39.01,63.91,128.58,139.86,333.64,139.86,1.08,0,2.14,0,3.23,0Z"/><ellipse class="cls-12" cx="417.96" cy="432.94" rx="47.69" ry="27.35"/><ellipse class="cls-12" cx="662.11" cy="432.94" rx="47.69" ry="27.35"/><g><g><path class="cls-6" d="m396.35,662.52c-63.7,0-115.53-51.83-115.53-115.53s51.83-115.53,115.53-115.53,115.53,51.83,115.53,115.53-51.83,115.53-115.53,115.53Zm0-215.53c-55.14,0-100.01,44.86-100.01,100.01s44.86,100.01,100.01,100.01,100.01-44.86,100.01-100.01-44.86-100.01-100.01-100.01Z"/><path class="cls-6" d="m685.09,662.52c-63.7,0-115.53-51.83-115.53-115.53s51.83-115.53,115.53-115.53,115.53,51.83,115.53,115.53-51.83,115.53-115.53,115.53Zm0-215.53c-55.15,0-100.01,44.86-100.01,100.01s44.86,100.01,100.01,100.01,100.01-44.86,100.01-100.01-44.86-100.01-100.01-100.01Z"/><path class="cls-6" d="m593.68,497.65c-2.4,0-4.77-1.11-6.29-3.21-10.95-15.1-28.6-24.11-47.22-24.11s-35.58,8.53-46.7,23.4c-2.57,3.43-7.43,4.14-10.86,1.57-3.43-2.57-4.13-7.43-1.57-10.86,13.87-18.55,35.97-29.63,59.13-29.63s45.93,11.41,59.78,30.52c2.52,3.47,1.74,8.32-1.73,10.84-1.38,1-2.97,1.48-4.55,1.48Z"/></g><ellipse class="cls-6" cx="659.01" cy="548.69" rx="41.82" ry="57.75" transform="translate(-40.56 52.75) rotate(-4.45)"/><ellipse class="cls-12" cx="647.66" cy="540.45" rx="12.63" ry="19.39" transform="translate(-39.96 51.85) rotate(-4.45)"/><ellipse class="cls-6" cx="420.4" cy="548.69" rx="57.75" ry="41.82" transform="translate(-159.24 925.29) rotate(-85.55)"/><ellipse class="cls-12" cx="431.76" cy="540.45" rx="19.39" ry="12.63" transform="translate(-140.55 929) rotate(-85.55)"/></g></svg>